HIERARCHY
ROOT Hips
{
	OFFSET 0.000000 0.000000 0.000000
	CHANNELS 6 Xposition Yposition Zposition Zrotation Yrotation Xrotation 
	JOINT LHipJoint
	{
		OFFSET 0.000000 0.000000 0.000000
		CHANNELS 3 Zrotation Yrotation Xrotation
		JOINT LeftUpLeg
		{
			OFFSET 1.363060 -1.794630 0.839290
			CHANNELS 3 Zrotation Yrotation Xrotation
			JOINT LeftLeg
			{
				OFFSET 2.448110 -6.726130 0.000000
				CHANNELS 3 Zrotation Yrotation Xrotation
				JOINT LeftFoot
				{
					OFFSET 2.562200 -7.039590 0.000000
					CHANNELS 3 Zrotation Yrotation Xrotation
					JOINT LeftToeBase
					{
						OFFSET 0.157640 -0.433110 2.322550
						CHANNELS 3 Zrotation Yrotation Xrotation
						End Site
						{
							OFFSET 0.000000 0.000000 0.000000
						}
					}
				}
			}
		}
	}
	JOINT RHipJoint
	{
		OFFSET 0.000000 0.000000 0.000000
		CHANNELS 3 Zrotation Yrotation Xrotation
		JOINT RightUpLeg
		{
			OFFSET -1.305520 -1.794630 0.839290
			CHANNELS 3 Zrotation Yrotation Xrotation
			JOINT RightLeg
			{
				OFFSET -2.542530 -6.985550 0.000000
				CHANNELS 3 Zrotation Yrotation Xrotation
				JOINT RightFoot
				{
					OFFSET -2.568260 -7.056230 0.000000
					CHANNELS 3 Zrotation Yrotation Xrotation
					JOINT RightToeBase
					{
						OFFSET -0.164730 -0.452590 2.363150
						CHANNELS 3 Zrotation Yrotation Xrotation
						End Site
						{
							OFFSET 0.000000 0.000000 0.000000
						}
					}
				}
			}
		}
	}
	JOINT LowerBack
	{
		OFFSET 0.000000 0.000000 0.000000
		CHANNELS 3 Zrotation Yrotation Xrotation
		JOINT Spine
		{
			OFFSET 0.028270 2.035590 -0.193380
			CHANNELS 3 Zrotation Yrotation Xrotation
			JOINT Spine1
			{
				OFFSET 0.056720 2.048850 -0.042750
				CHANNELS 3 Zrotation Yrotation Xrotation
				JOINT Neck
				{
					OFFSET 0.000000 0.000000 0.000000
					CHANNELS 3 Zrotation Yrotation Xrotation
					JOINT Neck1
					{
						OFFSET -0.054170 1.746240 0.172020
						CHANNELS 3 Zrotation Yrotation Xrotation
						JOINT Head
						{
							OFFSET 0.104070 1.761360 -0.123970
							CHANNELS 3 Zrotation Yrotation Xrotation
							End Site
							{
								OFFSET 0.000000 0.000000 0.000000
							}
						}
					}
				}
				JOINT LeftShoulder
				{
					OFFSET 0.000000 0.000000 0.000000
					CHANNELS 3 Zrotation Yrotation Xrotation
					JOINT LeftArm
					{
						OFFSET 3.362410 1.200890 -0.311210
						CHANNELS 3 Zrotation Yrotation Xrotation
						JOINT LeftForeArm
						{
							OFFSET 4.983000 -0.000000 -0.000000
							CHANNELS 3 Zrotation Yrotation Xrotation
							JOINT LeftHand
							{
								OFFSET 3.483560 -0.000000 -0.000000
								CHANNELS 3 Zrotation Yrotation Xrotation
								JOINT LeftFingerBase
								{
									OFFSET 0.000000 0.000000 0.000000
									CHANNELS 3 Zrotation Yrotation Xrotation
									JOINT LeftHandIndex1
									{
										OFFSET 0.715260 -0.000000 -0.000000
										CHANNELS 3 Zrotation Yrotation Xrotation
										End Site
										{
											OFFSET 0.000000 0.000000 0.000000
										}
									}
								}
								JOINT LThumb
								{
									OFFSET 0.000000 0.000000 0.000000
									CHANNELS 3 Zrotation Yrotation Xrotation
									End Site
									{
										OFFSET 0.000000 0.000000 0.000000
									}
								}
							}
						}
					}
				}
				JOINT RightShoulder
				{
					OFFSET 0.000000 0.000000 0.000000
					CHANNELS 3 Zrotation Yrotation Xrotation
					JOINT RightArm
					{
						OFFSET -3.136600 1.374050 -0.404650
						CHANNELS 3 Zrotation Yrotation Xrotation
						JOINT RightForeArm
						{
							OFFSET -5.241900 -0.000000 -0.000000
							CHANNELS 3 Zrotation Yrotation Xrotation
							JOINT RightHand
							{
								OFFSET -3.444170 -0.000000 -0.000000
								CHANNELS 3 Zrotation Yrotation Xrotation
								JOINT RightFingerBase
								{
									OFFSET 0.000000 0.000000 0.000000
									CHANNELS 3 Zrotation Yrotation Xrotation
									JOINT RightHandIndex1
									{
										OFFSET -0.622530 -0.000000 -0.000000
										CHANNELS 3 Zrotation Yrotation Xrotation
										End Site
										{
											OFFSET 0.000000 0.000000 0.000000
										}
									}
								}
								JOINT RThumb
								{
									OFFSET 0.000000 0.000000 0.000000
									CHANNELS 3 Zrotation Yrotation Xrotation
									End Site
									{
										OFFSET 0.000000 0.000000 0.000000
									}
								}
							}
						}
					}
				}
			}
		}
	}
}
MOTION
Frames: 6
Frame Time: 0.008333
-0.007218 17.128399 6.843402 0.704408 4.820099 21.804940 -2.205761 -1.638278 -0.367894 -15.057840 -2.342711 -5.310125 1.978720 11.456357 33.521440 1.336502 -7.803276 17.669928 0.229549 -3.082492 -8.508483 -0.951723 1.749002 -3.826165 12.303841 12.207925 -48.269070 -1.150963 -11.980246 30.059397 -0.383188 1.756160 2.684407 -1.518492 7.763643 -22.007392 5.438431 -1.505889 -7.834331 1.959687 -3.164954 -10.573152 -1.977379 -1.489699 -1.403757 -0.416663 0.531458 -11.438094 1.166112 0.830740 8.149048 -1.163065 0.481435 2.984174 12.831291 6.963548 -0.769507 -91.251468 -11.005381 30.795163 41.848664 -54.310823 -20.606137 0.174956 -0.286269 -14.087126 26.126178 -19.640166 -9.168646 -7.125000 0.000000 0.000000 -1.451180 8.692979 1.215390 -12.949465 -6.285326 1.320219 99.288833 -23.930334 -68.836655 -4.249317 10.164023 0.060255 -1.541517 0.547860 60.990615 -19.834604 -36.140861 11.009720 7.125000 0.000000 0.000000 19.344670 -65.780257 -9.869871
-0.003886 17.140006 6.971964 0.477959 4.745822 21.667523 -2.160942 -1.668610 -0.438205 -14.913277 -2.465877 -5.770758 2.300692 11.884518 34.934910 1.362675 -7.155583 19.120499 0.246048 -3.190875 -8.810649 -0.964680 1.723356 -3.781875 12.846708 12.032575 -48.166983 -1.297504 -12.190121 30.789564 -0.438402 2.610505 2.460506 -1.293476 7.188729 -20.283377 5.882971 -1.425168 -7.633927 1.968076 -3.103951 -10.569437 -2.169520 -1.471002 -1.522562 -0.392070 0.584531 -11.321030 1.100989 0.900507 7.996132 -1.183196 0.510904 2.895921 12.838450 6.958299 -0.753978 -91.356221 -10.493492 30.579915 41.801729 -54.277646 -20.571446 0.174539 -0.283832 -14.148002 26.007075 -19.447270 -9.036137 -7.125000 0.000000 0.000000 -1.507940 8.919136 1.256170 -12.966137 -6.285135 1.314902 99.281128 -23.638499 -68.870232 -4.257617 10.170270 0.055245 -1.538210 0.552112 61.124706 -19.864494 -36.041709 11.002560 7.125000 0.000000 0.000000 19.206610 -65.697971 -9.760813
-0.003448 17.146938 7.100494 0.391515 4.506268 21.538574 -2.116981 -1.699299 -0.508531 -14.971384 -2.531055 -6.254007 2.646058 12.319447 36.399491 1.394344 -6.720055 20.362009 0.279926 -3.394083 -9.378693 -0.975855 1.709948 -3.742222 13.208489 11.946408 -48.021611 -1.436700 -12.378211 31.453781 -0.488313 3.413339 2.249321 -1.073867 6.557372 -18.420927 6.094908 -1.330829 -7.371264 1.949618 -2.985006 -10.593451 -2.279833 -1.419131 -1.725312 -0.385308 0.609699 -11.149344 1.044705 0.931688 7.878335 -1.200742 0.522698 2.813818 12.834272 6.954376 -0.741573 -91.480484 -9.908101 30.404987 41.711756 -54.221187 -20.505253 0.174619 -0.280160 -14.233252 25.866744 -19.172825 -8.860493 -7.125000 0.000000 0.000000 -1.571503 9.235425 1.298970 -12.980095 -6.281009 1.307778 99.276809 -23.388220 -69.041294 -4.269967 10.177140 0.043853 -1.520722 0.559172 61.356024 -19.767534 -35.709624 10.861718 7.125000 0.000000 0.000000 18.983676 -65.370868 -9.503072
-0.005169 17.150381 7.229000 0.409581 4.143339 21.415944 -2.073658 -1.730253 -0.578869 -15.180780 -2.552945 -6.754137 3.008888 12.759429 37.902224 1.430117 -6.442905 21.447461 0.326776 -3.668077 -10.145210 -0.985700 1.705677 -3.706033 13.435092 11.926815 -47.843929 -1.570412 -12.550038 32.068768 -0.534264 4.177723 2.047628 -0.858294 5.883881 -16.455138 6.133211 -1.226326 -7.062125 1.911120 -2.822808 -10.638164 -2.329064 -1.342494 -1.990724 -0.391856 0.614038 -10.936886 0.995019 0.934065 7.786754 -1.216359 0.521297 2.736305 12.821631 6.951444 -0.731499 -91.619311 -9.267843 30.260156 41.589657 -54.147347 -20.415543 0.175068 -0.275565 -14.336698 25.710566 -18.837507 -8.652651 -7.125000 0.000000 0.000000 -1.640144 9.618995 1.343278 -12.992028 -6.273946 1.299307 99.275018 -23.168961 -69.314987 -4.285338 10.184474 0.027698 -1.492649 0.568327 61.659921 -19.575883 -35.203657 10.621086 7.125000 0.000000 0.000000 18.697387 -64.861015 -9.134340
-0.009435 17.155293 7.357291 0.440456 3.863489 21.348244 -2.017993 -1.774623 -0.678204 -15.372007 -2.648436 -7.297620 3.396756 13.196486 39.435263 1.467139 -6.122680 22.456476 0.349726 -3.799141 -10.512263 -0.988378 1.701350 -3.686382 13.647995 11.856700 -47.655092 -1.683495 -12.697611 32.590293 -0.566548 4.723959 1.748150 -0.752946 5.540030 -15.456110 6.218320 -1.123961 -7.341885 1.840521 -2.733643 -10.448039 -2.586184 -1.308400 -1.482809 -0.284302 0.661662 -10.923877 1.001972 0.983193 7.541587 -1.229264 0.542691 2.599478 12.859305 6.973040 -0.706444 -91.635374 -9.186202 30.045415 41.339227 -54.035356 -20.249786 0.173343 -0.269924 -14.541365 25.456515 -18.475422 -8.401059 -7.125000 0.000000 0.000000 -1.770776 10.043870 1.434247 -13.069315 -6.325719 1.320789 99.514440 -22.414977 -69.279407 -4.239684 10.142908 0.018414 -1.481052 0.583338 61.887847 -19.475985 -34.637582 10.410244 7.125000 0.000000 0.000000 18.284570 -64.307414 -8.694881
-0.015099 17.161013 7.485463 0.478374 3.629333 21.310755 -1.955539 -1.826372 -0.793488 -15.553240 -2.784409 -7.864948 3.798395 13.631934 40.984971 1.504849 -5.778764 23.423451 0.359532 -3.851595 -10.659610 -0.987114 1.696994 -3.675829 13.853363 11.758797 -47.460121 -1.785234 -12.831845 33.060414 -0.591314 5.150213 1.394890 -0.708223 5.377481 -14.988802 6.329170 -1.022772 -7.945540 1.752267 -2.684647 -10.128754 -2.957644 -1.297703 -0.549563 -0.113990 0.733095 -11.020567 1.040076 1.058035 7.211947 -1.240678 0.576623 2.430028 12.924651 7.008125 -0.673150 -91.583917 -9.411799 29.792223 41.018216 -53.902381 -20.042204 0.170422 -0.263706 -14.801705 25.148633 -18.098615 -8.125405 -7.125000 0.000000 0.000000 -1.935504 10.491463 1.550879 -13.182547 -6.409853 1.358745 99.886529 -21.366894 -69.073727 -4.160466 10.074445 0.012909 -1.478518 0.601572 62.073991 -19.426551 -34.038446 10.215787 7.125000 0.000000 0.000000 17.802163 -63.729750 -8.216521
